<?xml version="1.0" encoding="utf-8"?>
<!-- Generator: Adobe Illustrator 18.0.0, SVG Export Plug-In . SVG Version: 6.00 Build 0)  -->
<!DOCTYPE svg PUBLIC "-//W3C//DTD SVG 1.1//EN" "http://www.w3.org/Graphics/SVG/1.1/DTD/svg11.dtd">
<svg version="1.1" id="Layer_1" xmlns="http://www.w3.org/2000/svg" xmlns:xlink="http://www.w3.org/1999/xlink" x="0px" y="0px"
	 viewBox="0 0 1000 1000" enable-background="new 0 0 1000 1000" xml:space="preserve">
<g>
	<path fill="#F05A29" d="M-7348.1-894.8h-8.6V-1273c0-23.7-19.3-43-43-43h-795.9c-23.7,0-43,19.3-43,43v297.9h-15.8
		c-23.7,0-43,19.3-43,43V-526c0,23.7,19.3,43,43,43h277.7c23.7,0,43-19.3,43-43V-706h83.1v78.4h-42.4c-6.5,0-11.7,5.2-11.7,11.7
		s5.2,11.7,11.7,11.7h228.4c6.5,0,11.7-5.2,11.7-11.7s-5.2-11.7-11.7-11.7h-42.4V-706h187.1v129.4c0,23.7,19.3,43,43,43h128.7
		c23.7,0,43-19.3,43-43v-275.2C-7305.1-875.5-7324.4-894.8-7348.1-894.8z M-7957.1-526c0,10.8-8.8,19.5-19.5,19.5h-277.7
		c-10.8,0-19.5-8.8-19.5-19.5v-33.5h316.8V-526z M-7957.1-582.9h-316.8v-349.3c0-10.8,8.8-19.5,19.5-19.5l277.7,0
		c10.8,0,19.5,8.8,19.5,19.5V-582.9z M-7730.3-627.6h-96.8V-706h96.8V-627.6z M-7933.7-729.5v-74.6h413.9v74.6H-7933.7z
		 M-7519.8-851.9v24.3h-413.9v-104.7c0-23.7-19.3-43-43-43l-238.5,0V-1273c0-10.8,8.8-19.5,19.5-19.5h795.9
		c10.8,0,19.5,8.8,19.5,19.5v378.2h-96.6C-7500.5-894.8-7519.8-875.5-7519.8-851.9z M-7328.6-576.6c0,10.8-8.8,19.5-19.5,19.5
		h-128.7c-10.8,0-19.5-8.8-19.5-19.5v-31.9h167.8V-576.6z M-7328.6-632h-167.8v-219.9c0-10.8,8.8-19.5,19.5-19.5h128.7
		c10.8,0,19.5,8.8,19.5,19.5V-632z"/>
</g>
<path fill="#F05A29" d="M-5683.3-940.6h-57.7v-63.3c0-6.5-5.2-11.7-11.7-11.7h-831.9c-6.5,0-11.7,5.2-11.7,11.7v130
	c0,235.8,191.9,427.7,427.7,427.7c204.8,0,376.4-144.8,418-337.3v1.1h67.4c43.6,0,79.1-35.5,79.1-79.1
	C-5604.2-905.1-5639.7-940.6-5683.3-940.6z M-6168.7-469.6c-216.2,0-393.3-170.6-403.7-384.3h807.5
	C-5775.4-640.2-5952.5-469.6-6168.7-469.6z M-5764.5-877.4h-808.5v-114.8h808.5V-877.4z M-5683.3-805.8h-63.2
	c3.6-22.2,5.5-44.9,5.5-68.1v-43.3h57.7c30.7,0,55.7,25,55.7,55.7C-5627.6-830.8-5652.6-805.8-5683.3-805.8z"/>
<g>
	<path fill="#F05A29" d="M-6359-1092.7c-43.6,0-79.1-35.5-79.1-79.1c0-43.6,35.5-79.1,79.1-79.1c30.7,0,55.7-25,55.7-55.7
		c0-30.7-25-55.7-55.7-55.7c-6.5,0-11.7-5.2-11.7-11.7c0-6.5,5.2-11.7,11.7-11.7c43.6,0,79.1,35.5,79.1,79.1s-35.5,79.1-79.1,79.1
		c-30.7,0-55.7,25-55.7,55.7c0,30.7,25,55.7,55.7,55.7c6.5,0,11.7,5.2,11.7,11.7C-6347.3-1097.9-6352.5-1092.7-6359-1092.7z"/>
</g>
<g>
	<path fill="#F05A29" d="M-6156.8-1092.7c-43.6,0-79.1-35.5-79.1-79.1c0-43.6,35.5-79.1,79.1-79.1c30.7,0,55.7-25,55.7-55.7
		c0-30.7-25-55.7-55.7-55.7c-6.5,0-11.7-5.2-11.7-11.7c0-6.5,5.2-11.7,11.7-11.7c43.6,0,79.1,35.5,79.1,79.1s-35.5,79.1-79.1,79.1
		c-30.7,0-55.7,25-55.7,55.7c0,30.7,25,55.7,55.7,55.7c6.5,0,11.7,5.2,11.7,11.7C-6145.1-1097.9-6150.3-1092.7-6156.8-1092.7z"/>
</g>
<g>
	<path fill="#F05A29" d="M-5954.6-1092.7c-43.6,0-79.1-35.5-79.1-79.1c0-43.6,35.5-79.1,79.1-79.1c30.7,0,55.7-25,55.7-55.7
		c0-30.7-25-55.7-55.7-55.7c-6.5,0-11.7-5.2-11.7-11.7c0-6.5,5.2-11.7,11.7-11.7c43.6,0,79.1,35.5,79.1,79.1s-35.5,79.1-79.1,79.1
		c-30.7,0-55.7,25-55.7,55.7c0,30.7,25,55.7,55.7,55.7c6.5,0,11.7,5.2,11.7,11.7C-5942.9-1097.9-5948.1-1092.7-5954.6-1092.7z"/>
</g>
<g>
	<path fill="#F05A29" d="M-4462.2-1014.8h-308.9c-6.5,0-11.7-5.2-11.7-11.7v-238.3c0-6.5,5.2-11.7,11.7-11.7h308.9
		c6.5,0,11.7,5.2,11.7,11.7v238.3C-4450.5-1020.1-4455.7-1014.8-4462.2-1014.8z M-4759.3-1038.2h285.4v-214.8h-285.4V-1038.2z"/>
</g>
<path fill="#F05A29" d="M-3880.2-1016.6c-16.8-16.8-39.2-26.1-63-26.1c0,0,0,0,0,0c-23.8,0-46.1,9.3-63,26.1l-25.7,26
	c-8.7-5.9-19.1-9.3-30.3-9.3c-30.4,0-55,25-55,55.7c0,2.4,0.2,4.8,0.5,7.1c-21,16.3-34.6,41.8-34.6,70.3c0,49.1,40,89.1,89.1,89.1
	c78.9,0,143,64.2,143,143c0,80.6-65.6,146.1-146.1,146.1c-39-0.2-75.6-15.7-103-43.4c-27.4-27.8-42.4-64.6-42.1-103.6
	c0-2-0.5-3.9-1.4-5.6l-1.6-3v-305.4c0-49.1-40-89.1-89.1-89.1h-65.6v-265.8c0-32.3-26.3-58.6-58.6-58.6H-4804
	c-32.3,0-58.6,26.3-58.6,58.6V-485c0,6.5,5.2,11.7,11.7,11.7h471c6.5,0,11.7-5.3,11.7-11.7v-530.3h65.6c36.2,0,65.7,29.5,65.7,65.7
	v308.4c0,1.9,0.5,3.8,1.4,5.6l1.6,3c0.5,44.2,17.8,85.7,48.9,117.2c31.8,32.2,74.3,50.1,119.6,50.4c93.5,0,169.6-76.1,169.6-169.6
	c0-91.8-74.7-166.4-166.4-166.4c-36.2,0-65.6-29.5-65.6-65.6c0-18.3,7.6-34.9,19.7-46.8c9.9,15.2,26.8,25.3,46,25.3
	c30.3,0,54.9-25.1,54.9-56c0-10.8-3.1-20.9-8.4-29.5l26-26.4c12.4-12.4,28.9-19.2,46.4-19.2c17.5,0,34,6.8,46.4,19.2
	c4.6,4.6,12,4.6,16.6,0C-3875.6-1004.6-3875.6-1012-3880.2-1016.6z M-4804-1339.6h377.3c19.4,0,35.2,15.8,35.2,35.2v807.8h-447.6
	v-807.8C-4839.1-1323.9-4823.4-1339.6-4804-1339.6z M-4062-911.6c-17.4,0-31.6-14.6-31.6-32.5c0-17.8,14.2-32.3,31.6-32.3
	c17.3,0,31.5,14.5,31.5,32.3C-4030.6-926.2-4044.7-911.6-4062-911.6z"/>
<g>
	<path fill="#F05A29" d="M-2348.1-418c-52.9,0-95.9-43.9-95.9-97.9c0-50.4,78-143.7,87-154.1c4.5-5.2,13.4-5.2,17.9,0
		c8.9,10.5,87,103.7,87,154.1C-2252.2-461.9-2295.2-418-2348.1-418z M-2348.1-644c-26.2,32.6-72.4,96.6-72.4,128.1
		c0,41,32.5,74.4,72.4,74.4c40,0,72.5-33.4,72.5-74.4C-2275.6-547.3-2321.9-611.3-2348.1-644z"/>
</g>
<path fill="#F05A29" d="M-2193.8-806.4h-29v-146.8c0-116.8-93-211.9-207.2-211.9h-248.3v-47.7c0-6.5-5.2-11.7-11.7-11.7h-35.5v-85.6
	h58.2c32.3,0,58.6-22.4,58.6-50s-26.3-50-58.6-50h-214.8c-32.3,0-58.6,22.4-58.6,50s26.3,50,58.6,50h58.2v85.6h-32.2
	c-6.5,0-11.7,5.2-11.7,11.7v47.7h-203.9c-6.5,0-11.7,5.2-11.7,11.7v222.8c0,6.5,5.2,11.7,11.7,11.7h529.5
	c32.9,0,68.1,14.9,68.1,56.9v55.5h-28.2c-6.5,0-11.7,5.2-11.7,11.7v76.6c0,6.5,5.2,11.7,11.7,11.7h308.5c6.5,0,11.7-5.2,11.7-11.7
	v-76.6C-2182.1-801.2-2187.4-806.4-2193.8-806.4z M-2917.3-1360.1c0-14.4,16.1-26.6,35.2-26.6h214.8c19.1,0,35.2,12.2,35.2,26.6
	c0,14.4-16.1,26.6-35.2,26.6h-214.8C-2901.2-1333.5-2917.3-1345.7-2917.3-1360.1z M-2800.5-1310.1h51.4v85.6h-51.4V-1310.1z
	 M-2844.4-1201.1h142.6v36h-142.6V-1201.1z M-2542.2-942.2h-517.8v-199.4h630c101.4,0,183.8,84.5,183.8,188.4v146.8h-204.5v-55.5
	C-2450.7-910-2487.5-942.2-2542.2-942.2z M-2205.6-729.8h-285V-783h285V-729.8z"/>
<g>
	<g>
		<path fill="#F05A29" d="M3516.6-433.6c-269.2,0-488.3-219-488.3-488.3c0-269.2,219-488.3,488.3-488.3s488.3,219,488.3,488.3
			C4004.9-652.6,3785.9-433.6,3516.6-433.6z M3516.6-1386.7c-256.3,0-464.8,208.5-464.8,464.8S3260.3-457,3516.6-457
			s464.8-208.5,464.8-464.8S3773-1386.7,3516.6-1386.7z"/>
	</g>
	<g>
		<path fill="#F05A29" d="M3513.9-512.6C3513.9-512.6,3513.8-512.6,3513.9-512.6c-6.5,0-11.8-5.3-11.7-11.8l0.2-31.3
			c0-6.4,5.3-11.6,11.7-11.6c0,0,0,0,0.1,0c6.5,0,11.7,5.3,11.6,11.8l-0.2,31.3C3525.6-517.8,3520.3-512.6,3513.9-512.6z"/>
	</g>
	<g>
		<path fill="#F05A29" d="M3516.2-1270.3C3516.1-1270.3,3516.1-1270.3,3516.2-1270.3c-6.5,0-11.8-5.3-11.7-11.8l0.2-31.3
			c0-6.4,5.3-11.6,11.7-11.6c0,0,0,0,0.1,0c6.5,0,11.7,5.3,11.6,11.8l-0.2,31.3C3527.9-1275.5,3522.6-1270.3,3516.2-1270.3z"/>
	</g>
	<g>
		<path fill="#F05A29" d="M3147.9-904.2C3147.9-904.2,3147.9-904.2,3147.9-904.2l-31.3-0.2c-6.5,0-11.7-5.3-11.6-11.8
			c0-6.4,5.3-11.6,11.7-11.6c0,0,0,0,0.1,0l31.2,0.2c6.5,0,11.7,5.3,11.6,11.8C3159.6-909.4,3154.4-904.2,3147.9-904.2z"/>
	</g>
	<g>
		<path fill="#F05A29" d="M3913.6-901.9C3913.5-901.9,3913.5-901.9,3913.6-901.9l-31.3-0.2c-6.5,0-11.7-5.3-11.6-11.8
			c0-6.5,5.3-12,11.8-11.6l31.3,0.2c6.5,0,11.7,5.3,11.6,11.8C3925.2-907.1,3920-901.9,3913.6-901.9z"/>
	</g>
	<g>
		<path fill="#F05A29" d="M3710.2-565.3c-4.1,0-8-2.1-10.2-5.9l-15.5-27.1c-3.2-5.6-1.2-12.8,4.4-16c5.6-3.2,12.8-1.3,16,4.4
			l15.5,27.1c3.2,5.6,1.2,12.8-4.4,16C3714.1-565.8,3712.1-565.3,3710.2-565.3z"/>
	</g>
	<g>
		<path fill="#F05A29" d="M3334.2-1223.2c-4.1,0-8-2.1-10.2-5.9l-15.5-27.1c-3.2-5.6-1.3-12.8,4.4-16c5.6-3.2,12.8-1.3,16,4.4
			l15.5,27.1c3.2,5.6,1.3,12.8-4.4,16C3338.2-1223.7,3336.2-1223.2,3334.2-1223.2z"/>
	</g>
	<g>
		<path fill="#F05A29" d="M3170.5-706.7c-4.1,0-8-2.1-10.2-5.9c-3.2-5.6-1.2-12.8,4.4-16l27.1-15.5c5.6-3.2,12.8-1.3,16,4.4
			c3.2,5.6,1.2,12.8-4.4,16l-27.1,15.5C3174.4-707.2,3172.4-706.7,3170.5-706.7z"/>
	</g>
	<g>
		<path fill="#F05A29" d="M3835.2-1086.6c-4.1,0-8-2.1-10.2-5.9c-3.2-5.6-1.3-12.8,4.4-16l27.1-15.5c5.6-3.2,12.8-1.3,16,4.4
			c3.2,5.6,1.3,12.8-4.4,16l-27.1,15.5C3839.2-1087.1,3837.2-1086.6,3835.2-1086.6z"/>
	</g>
	<g>
		<path fill="#F05A29" d="M3855.3-709.4c-2,0-4-0.5-5.9-1.6l-27-15.8c-5.6-3.3-7.5-10.4-4.2-16c3.3-5.6,10.5-7.5,16-4.2l27,15.8
			c5.6,3.3,7.5,10.4,4.2,16C3863.3-711.5,3859.3-709.4,3855.3-709.4z"/>
	</g>
	<g>
		<path fill="#F05A29" d="M3200.5-1090.5c-2,0-4-0.5-5.9-1.6l-27-15.8c-5.6-3.3-7.5-10.4-4.2-16c3.3-5.6,10.5-7.5,16-4.2l27,15.8
			c5.6,3.3,7.5,10.4,4.2,16C3208.4-1092.6,3204.5-1090.5,3200.5-1090.5z"/>
	</g>
	<g>
		<path fill="#F05A29" d="M3317.4-561.5c-2,0-4-0.5-5.9-1.6c-5.6-3.3-7.5-10.4-4.2-16l15.8-27c3.3-5.6,10.4-7.5,16-4.2
			c5.6,3.3,7.5,10.4,4.2,16l-15.8,27C3325.4-563.5,3321.4-561.5,3317.4-561.5z"/>
	</g>
	<g>
		<path fill="#F05A29" d="M3702.5-1223.2c-2,0-4-0.5-5.9-1.6c-5.6-3.3-7.5-10.4-4.2-16l15.8-27c3.3-5.6,10.5-7.5,16-4.2
			c5.6,3.3,7.5,10.4,4.2,16l-15.8,27C3710.5-1225.3,3706.5-1223.2,3702.5-1223.2z"/>
	</g>
	<g>
		<path fill="#F05A29" d="M3484-809.8C3484-809.8,3484-809.8,3484-809.8c-3.2,0-6.2-1.3-8.4-3.5l-115.2-117.9
			c-4.5-4.6-4.4-12,0.2-16.6c4.6-4.5,12.1-4.4,16.6,0.2l106.8,109.4l195.5-198.5c4.5-4.6,12-4.7,16.6-0.1c4.6,4.5,4.7,12,0.1,16.6
			l-203.9,207C3490.2-811,3487.2-809.8,3484-809.8z"/>
	</g>
</g>
<g>
	<g>
		<path fill="#F05A29" d="M-666.9-891.4c-6.5,0-11.7-5.2-11.7-11.7c0-32.8-26.7-59.5-59.4-59.5c-32.8,0-59.4,26.7-59.4,59.5
			c0,6.5-5.2,11.7-11.7,11.7s-11.7-5.2-11.7-11.7c0-45.7,37.2-82.9,82.9-82.9s82.9,37.2,82.9,82.9
			C-655.2-896.7-660.5-891.4-666.9-891.4z"/>
	</g>
	<g>
		<path fill="#F05A29" d="M-1147.3-891.4c-6.5,0-11.7-5.2-11.7-11.7c0-32.8-26.7-59.5-59.4-59.5c-32.8,0-59.4,26.7-59.4,59.5
			c0,6.5-5.2,11.7-11.7,11.7s-11.7-5.2-11.7-11.7c0-45.7,37.2-82.9,82.9-82.9c45.7,0,82.9,37.2,82.9,82.9
			C-1135.6-896.7-1140.8-891.4-1147.3-891.4z"/>
	</g>
	<path fill="#F05A29" d="M-576.4-1061h-953.1c-6.5,0-11.7,5.2-11.7,11.7c0,1.2,0.2,2.4,0.6,3.5h-0.6v58.5
		c0,32.3,26.3,58.6,58.6,58.6h6.4v107.9c0,32.3,26.3,58.6,58.6,58.6h309.7c32.3,0,58.6-26.3,58.6-58.6v-216.8h57.8v216.8
		c0,32.3,26.3,58.6,58.6,58.6h309.7c32.3,0,58.6-26.3,58.6-58.6v-228.5C-564.7-1055.7-569.9-1061-576.4-1061z M-1517.8-987.3v-50.3
		h119.5v50.3c0,19.4-15.8,35.2-35.2,35.2h-49.2C-1502-952.1-1517.8-967.9-1517.8-987.3z M-1072.8-820.8c0,19.4-15.8,35.2-35.2,35.2
		h-309.7c-19.4,0-35.2-15.8-35.2-35.2v-107.9h19.4c32.3,0,58.6-26.3,58.6-58.6v-50.3h302.1V-820.8z M-623.3-785.6H-933
		c-19.4,0-35.2-15.8-35.2-35.2v-216.8h380.1v216.8C-588.1-801.4-603.9-785.6-623.3-785.6z"/>
	<g>
		<circle fill="#F05A29" cx="-1462.1" cy="-995.9" r="23.9"/>
	</g>
</g>
<g>
	<g>
		<path fill="#FFFFFF" d="M2198.2-921.4l-228.3,144.1c-15.6,11-25.9,29.1-25.9,49.6c0,33.5,27.1,60.6,60.6,60.6
			c20.4,0,38.3-10.1,49.3-25.5L2198.2-921.4z"/>
		<path fill="#F05A29" d="M2004.6-655.4c-39.9,0-72.3-32.4-72.3-72.3c0-23.5,11.5-45.7,30.9-59.2l228.8-144.4
			c4.7-2.9,10.7-2.2,14.5,1.6c3.9,3.9,4.5,9.9,1.6,14.5l-144.3,228.8C2049.9-666.8,2027.9-655.4,2004.6-655.4z M2160.7-883.9
			l-184.5,116.4c-12.6,8.9-20.4,23.8-20.4,39.7c0,26.9,21.9,48.9,48.9,48.9c15.7,0,30.6-7.7,39.8-20.6L2160.7-883.9z"/>
	</g>
</g>
<g>
	<g>
		<path fill="#F05A29" d="M502.6-431.7l-0.3,0c-0.5,0-52.9-1.5-93.2-2.3c-63.8-1.2-106.9-44.2-109.9-109.5
			c-2.1-47-2.1-91.3-2.1-91.7c0-0.5,0-49.4,1.7-92.4c2.7-67.5,41.6-106.4,109.6-109.6c43-2,93.7-2.1,94.3-2.1c0.5,0,51.2,0,94.3,2.1
			c68,3.2,106.9,42.1,109.6,109.6c1.7,43.1,1.7,91.9,1.7,92.4c0,0.4,0,44.7-2.1,91.7c-2.9,65.3-46,108.3-109.8,109.5
			c-40.4,0.8-92.9,2.3-93.4,2.3L502.6-431.7z M502.7-820.2c-0.5,0-50.8,0-93.4,2c-58.4,2.7-89.1,33.4-91.4,91.2
			c-1.7,42.7-1.7,91.2-1.7,91.7c0,0.4,0,44.3,2.1,90.8c2,43.3,26.9,90,91.1,91.3c38.9,0.8,88.9,2.2,93.1,2.3
			c4.2-0.1,54.4-1.6,93.3-2.3c64.2-1.2,89.2-47.9,91.1-91.3c2.1-46.5,2.1-90.4,2.1-90.8c0-0.5,0-49-1.7-91.7
			c-2.3-57.8-33-88.5-91.4-91.2C553.5-820.2,503.2-820.2,502.7-820.2z"/>
	</g>
	<path fill="#F05A29" d="M591.4-578.1l-64-70.3l57-59.9c3.6-3.8,3.5-9.9-0.3-13.5c-3.8-3.6-9.9-3.5-13.5,0.3l-122,128.3V-715
		c0-5.3-4.3-9.6-9.6-9.6c-5.3,0-9.6,4.3-9.6,9.6v145.7c0,3.9,2.4,7.4,6,8.9c1.1,0.5,2.4,0.7,3.5,0.7c2.6,0,5.1-1,6.9-3l68.3-71.8
		l63.1,69.3c1.9,2.1,4.5,3.1,7.1,3.1c2.3,0,4.6-0.8,6.4-2.5C594.7-568.2,595-574.2,591.4-578.1z"/>
</g>
<g>
	<path fill="#F05A29" d="M2484.4-722c-6.5,0-11.7-5.2-11.7-11.7v-30.4c0-259-210.4-469.7-469-469.7
		c-258.6,0-469.1,210.7-469.1,469.7v30.4c0,6.5-5.2,11.7-11.7,11.7s-11.7-5.2-11.7-11.7v-30.4c0-271.9,220.9-493.1,492.5-493.1
		c271.6,0,492.5,221.2,492.5,493.1v30.4C2496.1-727.2,2490.8-722,2484.4-722z"/>
</g>
<g>
	<path fill="#F05A29" d="M1995.6-1101.2C1995.6-1101.2,1995.6-1101.2,1995.6-1101.2c-6.5,0-11.8-5.3-11.7-11.8l0.2-46.6
		c0-6.5,5.3-11.7,11.7-11.7c0,0,0,0,0.1,0c6.5,0,11.7,5.3,11.7,11.8l-0.2,46.6C2007.3-1106.4,2002.1-1101.2,1995.6-1101.2z"/>
</g>
<g>
	<path fill="#F05A29" d="M1639.2-746.4C1639.2-746.4,1639.1-746.4,1639.2-746.4l-46.6-0.2c-6.5,0-11.7-5.3-11.7-11.8
		c0-6.5,5.3-11.7,11.7-11.7c0,0,0,0,0.1,0l46.5,0.2c6.5,0,11.7,5.3,11.7,11.8C1650.9-751.6,1645.6-746.4,1639.2-746.4z"/>
</g>
<g>
	<path fill="#F05A29" d="M2411.5-744C2411.5-744,2411.5-744,2411.5-744l-61.6-0.2c-6.5,0-11.7-5.3-11.7-11.8
		c0-6.5,5.3-11.7,11.7-11.7c0,0,0,0,0,0l61.6,0.2c6.5,0,11.7,5.3,11.7,11.8C2423.2-749.2,2418-744,2411.5-744z"/>
</g>
<g>
	<path fill="#F05A29" d="M1827.1-1053.6c-3.6,0-7.2-1.7-9.5-4.9l-30.7-42.4c-3.8-5.2-2.6-12.6,2.6-16.4s12.6-2.6,16.4,2.6l30.7,42.4
		c3.8,5.2,2.6,12.6-2.6,16.4C1831.9-1054.3,1829.4-1053.6,1827.1-1053.6z"/>
</g>
<g>
	<path fill="#F05A29" d="M2302.4-915.6c-3.6,0-7.2-1.7-9.5-4.8c-3.8-5.2-2.6-12.6,2.6-16.4l42.4-30.7c5.2-3.8,12.6-2.6,16.4,2.6
		c3.8,5.2,2.6,12.6-2.6,16.4l-42.4,30.7C2307.2-916.3,2304.8-915.6,2302.4-915.6z"/>
</g>
<g>
	<path fill="#F05A29" d="M1692.1-927c-1.9,0-3.9-0.5-5.7-1.5l-42.2-23.4c-5.7-3.1-7.7-10.3-4.6-15.9c3.1-5.7,10.3-7.7,15.9-4.6
		l42.2,23.4c5.7,3.1,7.7,10.3,4.6,15.9C1700.3-929.2,1696.3-927,1692.1-927z"/>
</g>
<g>
	<path fill="#F05A29" d="M2176.1-1053.6c-1.9,0-3.9-0.5-5.7-1.5c-5.7-3.1-7.7-10.3-4.6-15.9l23.4-42.3c3.1-5.7,10.3-7.7,15.9-4.6
		c5.7,3.1,7.7,10.3,4.6,15.9l-23.4,42.3C2184.2-1055.8,2180.2-1053.6,2176.1-1053.6z"/>
</g>
<g>
	<path fill="#FFFFFF" d="M-2986.5,297.4"/>
	<path fill="#FFFFFF" d="M-2263.1,297.4"/>
</g>
<path fill="#F05A29" d="M-2203.8,381.4c39.2,0,71-31.8,71-71c0-39.2-31.9-71-71-71h-47.6V183c0-6.5-5.2-11.7-11.7-11.7h-731.7
	c-6.5,0-11.7,5.2-11.7,11.7v56.4h-47.6c-39.2,0-71,31.9-71,71c0,39.1,31.9,71,71,71c26.2,0,47.6,21.3,47.6,47.6
	c0,26.2-21.3,47.6-47.6,47.6c-6.5,0-11.7,5.3-11.7,11.7c0,6.5,5.2,11.7,11.7,11.7c39.2,0,71-31.9,71-71c0-0.2,0-0.5,0-0.7
	c46.4,125.1,157.1,219.1,291.7,241.6v125.4h-18c-32.3,0-58.6,19.9-58.6,44.4c0,24.5,26.3,44.4,58.6,44.4h169.1
	c32.3,0,58.6-19.9,58.6-44.4c0-24.5-26.3-44.4-58.6-44.4h-18V668.4c130.9-24.9,238-117.6,283.4-240.1c0,0.2,0,0.5,0,0.7
	c0,39.2,31.9,71,71,71c6.5,0,11.7-5.2,11.7-11.7c0-6.5-5.2-11.7-11.7-11.7c-26.2,0-47.6-21.3-47.6-47.6
	C-2251.4,402.8-2230,381.4-2203.8,381.4z M-3054,358c-26.2,0-47.6-21.3-47.6-47.6c0-26.2,21.3-47.6,47.6-47.6h47.6v34.5
	c0,31.8,4,62.6,11.4,92.1C-3007.8,370.5-3029.5,358-3054,358z M-2505.1,839.7c0,9.9-14.4,20.9-35.2,20.9h-169.1
	c-20.7,0-35.2-11-35.2-20.9c0-9.9,14.4-20.9,35.2-20.9h169.1C-2519.5,818.8-2505.1,829.8-2505.1,839.7z M-2667.9,795.3V675.2h86.3
	v120.2L-2667.9,795.3L-2667.9,795.3z M-2628.9,651.6c-191.3,0-347.6-152.6-353.8-342.6h707.6C-2281.3,499-2437.6,651.6-2628.9,651.6
	z M-2274.8,285.6H-2983v-90.9h708.2V285.6z M-2262.8,389.5c7.4-29.5,11.4-60.4,11.4-92.1v-34.5h47.6c26.2,0,47.6,21.4,47.6,47.6
	c0,26.2-21.3,47.6-47.6,47.6C-2228.3,358-2250,370.5-2262.8,389.5z"/>
<g>
	<path fill="#F05A29" d="M-2764.6,519.5c-6.5,0-11.7-5.2-11.7-11.7V403.6c0-6.5,5.2-11.7,11.7-11.7s11.7,5.2,11.7,11.7v104.1
		C-2752.9,514.2-2758.1,519.5-2764.6,519.5z"/>
</g>
<g>
	<path fill="#F05A29" d="M-2668.1,519.5c-35.2,0-63.8-28.6-63.8-63.8s28.6-63.8,63.8-63.8s63.8,28.6,63.8,63.8
		S-2632.9,519.5-2668.1,519.5z M-2668.1,415.3c-22.2,0-40.3,18.1-40.3,40.3c0,22.2,18.1,40.4,40.3,40.4c22.2,0,40.3-18.1,40.3-40.4
		C-2627.7,433.4-2645.8,415.3-2668.1,415.3z"/>
</g>
<g>
	<path fill="#F05A29" d="M-2523.2,519.5c-35.2,0-63.8-28.6-63.8-63.8s28.6-63.8,63.8-63.8c35.1,0,63.7,28.6,63.7,63.8
		C-2459.5,490.8-2488.1,519.5-2523.2,519.5z M-2523.2,415.3c-22.2,0-40.4,18.1-40.4,40.3c0,22.2,18.1,40.4,40.4,40.4
		c22.2,0,40.3-18.1,40.3-40.4C-2482.9,433.4-2501,415.3-2523.2,415.3z"/>
</g>
<path fill="#F05A29" d="M-628.7,383.7c39.2,0,71-31.9,71-71c0-39.2-31.9-71.1-71-71.1h-47.6v-56.5c0-6.5-5.2-11.7-11.7-11.7H-1420
	c-6.5,0-11.7,5.3-11.7,11.7v56.5h-47.6c-39.2,0-71,31.9-71,71.1c0,39.2,31.9,71,71,71c26.2,0,47.6,21.4,47.6,47.6
	c0,26.3-21.4,47.6-47.6,47.6c-6.5,0-11.7,5.2-11.7,11.7s5.2,11.7,11.7,11.7c39.2,0,71-31.9,71-71.1c0-0.2,0-0.5,0-0.7
	c46.4,125.2,157.1,219.2,291.8,241.8v125.5h-18c-32.3,0-58.6,19.9-58.6,44.4c0,24.5,26.3,44.4,58.6,44.4h169.2
	c32.3,0,58.6-19.9,58.6-44.4s-26.3-44.4-58.6-44.4h-18v-127c130.9-24.9,238.1-117.7,283.5-240.3c0,0.2,0,0.5,0,0.7
	c0,39.2,31.9,71.1,71,71.1c6.5,0,11.7-5.2,11.7-11.7c0-6.5-5.2-11.7-11.7-11.7c-26.2,0-47.6-21.4-47.6-47.6
	C-676.3,405-655,383.7-628.7,383.7z M-1479.2,360.2c-26.2,0-47.6-21.3-47.6-47.6c0-26.3,21.3-47.7,47.6-47.7h47.6v34.6
	c0,31.8,4,62.7,11.4,92.2C-1433,372.7-1454.7,360.2-1479.2,360.2z M-930.1,842.3c0,9.9-14.4,21-35.2,21h-169.2
	c-20.7,0-35.2-11.1-35.2-21c0-9.9,14.4-21,35.2-21h169.2C-944.5,821.3-930.1,832.4-930.1,842.3z M-1093,797.9V677.6h86.3v120.3
	H-1093z M-1054,654.1c-191.4,0-347.7-152.8-353.9-342.9H-700C-706.2,501.4-862.6,654.1-1054,654.1z M-699.7,287.8h-708.5v-91h708.5
	V287.8z M-687.7,391.8c7.4-29.5,11.4-60.4,11.4-92.2V265h47.6c26.2,0,47.6,21.4,47.6,47.7c0,26.2-21.4,47.6-47.6,47.6
	C-653.3,360.2-675,372.8-687.7,391.8z"/>
<g>
	<path fill="#F05A29" d="M-1065.7,521.8c-35.2,0-63.8-28.6-63.8-63.8c0-35.2,28.6-63.8,63.8-63.8c35.2,0,63.8,28.6,63.8,63.8
		C-1001.9,493.2-1030.5,521.8-1065.7,521.8z M-1065.7,417.6c-22.2,0-40.3,18.1-40.3,40.4c0,22.3,18.1,40.4,40.3,40.4
		c22.2,0,40.3-18.1,40.3-40.4C-1025.3,435.7-1043.4,417.6-1065.7,417.6z"/>
</g>
<g>
	<path fill="#F05A29" d="M-920.8,521.8c-35.2,0-63.8-28.6-63.8-63.8c0-35.2,28.6-63.8,63.8-63.8c35.2,0,63.8,28.6,63.8,63.8
		C-857,493.2-885.6,521.8-920.8,521.8z M-920.8,417.6c-22.2,0-40.4,18.1-40.4,40.4c0,22.3,18.1,40.4,40.4,40.4
		c22.2,0,40.3-18.1,40.3-40.4C-880.5,435.7-898.6,417.6-920.8,417.6z"/>
</g>
<g>
	<path fill="#F05A29" d="M-1154.8,521.8h-67.8c-6.5,0-11.7-5.2-11.7-11.7c0-21.5,14.2-41.5,37.2-52.2l2.1-1
		c20.6-9.6,25.9-13.2,25.9-23.1c0-13.3-12.5-16.1-23-16.1h-30.7c-6.5,0-11.7-5.2-11.7-11.7s5.2-11.7,11.7-11.7h30.7
		c28.2,0,46.4,15.5,46.4,39.6c0,26-19.1,34.9-39.4,44.4l-2.1,1c-4.2,2-15.8,8.2-21,19.3h53.4c6.5,0,11.7,5.2,11.7,11.7
		C-1143.1,516.6-1148.4,521.8-1154.8,521.8z"/>
</g>
<g>
	<path fill="#F05A29" d="M-8079.4,301c28.1-17,46.9-47,46.9-81.2c0-52.9-44.9-96-100.1-96c-55.2,0-100.1,43.1-100.1,96
		c0,34.2,18.8,64.2,46.9,81.2c-64.7,21.2-111.5,79.9-111.5,149c0,6.5,5.2,11.7,11.7,11.7h305.9c0,0,0.1,0,0.2,0
		c6.5,0,11.7-5.2,11.7-11.7c0-0.7-0.1-1.4-0.2-2C-7968.9,379.8-8015.3,322-8079.4,301z M-8209.3,219.8c0-40,34.4-72.6,76.7-72.6
		c42.3,0,76.7,32.6,76.7,72.6s-34.4,72.6-76.7,72.6C-8174.9,292.4-8209.3,259.8-8209.3,219.8z M-8273.3,438.2
		c6.3-68.5,67-122.4,140.7-122.4c73.7,0,134.4,53.9,140.7,122.4H-8273.3z"/>
	<path fill="#F05A29" d="M-7305.1,448c-0.9-68.2-47.3-125.9-111.4-147c28.1-17,46.9-47,46.9-81.2c0-52.9-44.9-96-100.1-96
		s-100.1,43.1-100.1,96c0,34.2,18.8,64.2,46.9,81.2c-64.7,21.2-111.5,79.9-111.5,149c0,6.5,5.2,11.7,11.7,11.7h305.9
		c0.1,0,0.1,0,0.1,0c6.5,0,11.7-5.2,11.7-11.7C-7305,449.3-7305,448.6-7305.1,448z M-7546.4,219.8c0-40,34.4-72.6,76.7-72.6
		s76.7,32.6,76.7,72.6s-34.4,72.6-76.7,72.6S-7546.4,259.8-7546.4,219.8z M-7610.5,438.2c6.3-68.5,67-122.4,140.7-122.4
		c73.7,0,134.4,53.9,140.7,122.4H-7610.5z"/>
	<path fill="#F05A29" d="M-7983.8,172.2c55.5-29.7,118.7-45.4,182.5-45.4c63.9,0,127,15.7,182.6,45.4c1.8,0.9,3.7,1.4,5.5,1.4
		c4.2,0,8.2-2.2,10.3-6.2c3.1-5.7,0.9-12.8-4.8-15.9c-58.9-31.5-125.9-48.2-193.6-48.2c-67.7,0-134.7,16.7-193.6,48.2
		c-5.7,3.1-7.9,10.1-4.8,15.9C-7996.6,173.1-7989.5,175.2-7983.8,172.2z"/>
	<path fill="#F05A29" d="M-7416.3,497.3c-6.6-0.5-12.1,4.4-12.6,10.8c-9,119.5-80.2,225.8-190.2,284.5c-5.7,3-7.9,10.1-4.8,15.8
		c2.1,4,6.2,6.2,10.3,6.2c1.9,0,3.7-0.4,5.5-1.4c117.2-62.5,193-175.9,202.6-303.4C-7405,503.5-7409.9,497.8-7416.3,497.3z"/>
	<path fill="#F05A29" d="M-7983.1,792.8c-110.2-58.7-181.4-165.1-190.4-284.6c-0.5-6.4-6.1-11.3-12.6-10.8
		c-6.5,0.5-11.3,6.1-10.8,12.6c9.6,127.6,85.4,241.1,202.7,303.5c1.8,0.9,3.6,1.4,5.5,1.4c4.2,0,8.2-2.3,10.4-6.2
		C-7975.3,802.9-7977.4,795.8-7983.1,792.8z"/>
	<path fill="#F05A29" d="M-7747.9,765.5c28.1-17,46.9-47,46.9-81.2c0-52.9-44.9-96-100.1-96s-100.1,43.1-100.1,96
		c0,34.2,18.8,64.2,46.9,81.2c-64.7,21.2-111.5,79.9-111.5,149c0,6.5,5.2,11.7,11.7,11.7h305.9c0.1,0,0.1,0,0.2,0
		c6.5,0,11.7-5.2,11.7-11.7c0-0.7-0.1-1.4-0.2-2C-7637.3,844.2-7683.8,786.5-7747.9,765.5z M-7877.8,684.3c0-40,34.4-72.6,76.7-72.6
		c42.3,0,76.7,32.6,76.7,72.6c0,40-34.4,72.6-76.7,72.6C-7843.4,756.9-7877.8,724.3-7877.8,684.3z M-7941.8,902.7
		c6.3-68.5,67-122.4,140.7-122.4c73.7,0,134.4,53.9,140.7,122.4H-7941.8z"/>
</g>
<g>
	<g>
		<path fill="#F05A29" d="M-6478.8,266.6c-3,0-6-1.1-8.3-3.4c-4.6-4.6-4.6-12,0-16.6c116-116.2,270.2-180.2,434.2-180.2c0,0,0,0,0,0
			c164.1,0,318.3,64,434.3,180.2c4.6,4.6,4.6,12,0,16.6c-4.6,4.6-12,4.6-16.6,0c-111.6-111.7-259.9-173.3-417.7-173.3c0,0,0,0,0,0
			c-157.8,0-306.1,61.6-417.6,173.3C-6472.8,265.4-6475.8,266.6-6478.8,266.6z"/>
	</g>
	<g>
		<path fill="#F05A29" d="M-6350.8,404.3c-3,0-6-1.1-8.3-3.4c-4.6-4.6-4.6-12,0-16.6c81.8-81.9,190.6-127.1,306.2-127.1
			c115.7,0,224.5,45.1,306.3,127.1c4.6,4.6,4.6,12,0,16.6c-4.6,4.6-12,4.6-16.6,0c-77.4-77.5-180.3-120.2-289.7-120.2
			c-109.4,0-212.3,42.7-289.7,120.2C-6344.8,403.1-6347.8,404.3-6350.8,404.3z"/>
	</g>
	<g>
		<path fill="#F05A29" d="M-6223.4,542.1c-3,0-6-1.1-8.3-3.4c-4.6-4.6-4.6-12,0-16.6c47.8-47.9,111.2-74.2,178.8-74.2c0,0,0,0,0,0
			c67.6,0,131.1,26.4,178.9,74.2c4.6,4.6,4.6,12,0,16.6c-4.6,4.6-12,4.6-16.6,0c-43.3-43.4-101-67.3-162.3-67.3c0,0,0,0,0,0
			c-61.3,0-118.9,23.9-162.2,67.3C-6217.4,541-6220.4,542.1-6223.4,542.1z"/>
	</g>
</g>
<path fill="#F05A29" d="M-5623.5,704.4l-2.3-5.4c-6.1-14.4-17.5-25.4-32-31c-14.5-5.5-30.3-4.9-44.5,1.8l-180.4,85.2
	c-6.9-14.6-19.7-26.3-36.4-31.2l-123.3-36.2c-24.9-7.3-65.6-18.6-90.6-25.2c-4.2-1.1-113-26.9-230.1-9c0,0,0,0,0,0v0l-176.8,27
	c-15.5,2.4-29,10.6-37.9,23.3c-8.9,12.7-12.1,28.2-9,43.6l17.3,86.8c3.1,15.4,11.9,28.5,25,36.9c13.1,8.4,28.7,11.1,43.9,7.6
	l139.9-32.6c22.6-5.3,59.8-1.8,81,7.7c2.4,1.1,59,26.1,134.9,44c49.2,11.6,94.2,17.3,134.8,17.3c44.4,0,83.5-6.9,116.9-20.7
	c147.7-61,240.3-109.5,241.2-109.9C-5623.8,769.5-5611,733.6-5623.5,704.4z M-5662.8,763.5c-0.9,0.5-92.6,48.5-239.2,109
	c-142.5,58.8-365.9-39.3-368.1-40.4c-26-11.6-68.2-15.6-95.9-9.2l-139.9,32.6c-9,2.1-18.2,0.5-25.9-4.4s-12.9-12.7-14.7-21.8
	l-17.3-86.8c-1.8-9.1,0.1-18.1,5.3-25.5c5.2-7.4,13.1-12.2,22.2-13.6l176.8-27c112.2-17.1,219.7,8.3,220.7,8.5
	c24.9,6.5,65.3,17.8,90,25l123.3,36.2c18.6,5.5,29.3,25,23.9,43.7l-1.7,5.7c-5.5,18.7-25.2,29.8-44,24.6
	c-1.2-0.3-120.8-33-267.4-78.2c-6.2-1.9-12.8,1.6-14.6,7.8c-1.9,6.2,1.6,12.7,7.8,14.6c147,45.3,266.9,78.1,268.1,78.4
	c5.2,1.4,10.4,2.1,15.5,2.1c25.8,0,49.7-17,57.2-42.8l1.7-5.7c1.8-6.1,2.5-12.3,2.3-18.3l184.7-87.2c8.4-3.9,17.7-4.3,26.2-1.1
	c8.5,3.2,15.2,9.7,18.8,18.2l2.3,5.4C-5637.4,731.5-5645.5,754.4-5662.8,763.5z"/>
<g>
	<path fill="none" stroke="#F05A29" stroke-width="3" stroke-linecap="round" stroke-linejoin="round" stroke-miterlimit="10" d="
		M85.9-1205c235.2-235.6,616.7-235.6,852,0"/>
	<path fill="none" stroke="#F05A29" stroke-width="3" stroke-linecap="round" stroke-linejoin="round" stroke-miterlimit="10" d="
		M214-1067.3c164.6-164.8,431.4-164.8,595.9,0"/>
	<path fill="none" stroke="#F05A29" stroke-width="3" stroke-linecap="round" stroke-linejoin="round" stroke-miterlimit="10" d="
		M341.4-929.5c94.2-94.4,246.9-94.4,341.1,0"/>
</g>
<path fill="#F05A29" d="M-3886.6,297.9c0-32.3-26.3-58.6-58.6-58.6h-290.9c14.6-5.7,27.2-12.5,35.3-20.6
	c38.2-38.2,38.8-99.6,1.4-137c-17.9-17.9-41.7-27.7-67.2-27.7c-26.2,0-51,10.3-69.8,29.1c-17.1,17.1-28.5,53.9-35.8,89.1
	c-7.3-35.2-18.7-72-35.8-89.1c-18.8-18.8-43.5-29.1-69.8-29.1c-25.5,0-49.4,9.8-67.2,27.7c-18.1,18.1-28,42.4-27.7,68.4
	c0.3,25.8,10.6,50.2,29.1,68.7c8.1,8.1,20.6,14.9,35.2,20.6h-291c-32.3,0-58.6,26.3-58.6,58.6v148.6l0,0v0c0,6.5,5.2,11.7,11.7,11.7
	h83.7v404.2c0,32.3,26.3,58.6,58.6,58.6h663.4c32.3,0,58.6-26.3,58.6-58.6V458.3h83.6c6.5,0,11.7-5.2,11.7-11.7v0l0,0L-3886.6,297.9
	L-3886.6,297.9z M-3945.2,262.8c19.4,0,35.2,15.8,35.2,35.2v136.9h-450.5V265.2c5.6-0.6,12.8-1.4,21.1-2.4H-3945.2z M-4319.9,99.7
	c14.3-14.3,33.2-22.2,53.2-22.2c19.2,0,37.2,7.4,50.6,20.8c28.2,28.2,27.6,74.8-1.4,103.9c-19.4,19.4-80.9,31.4-123.9,37.2h-17.6
	C-4354.2,197.2-4341.7,121.6-4319.9,99.7z M-4527.1,202.2c-14.1-14.1-22-32.7-22.2-52.4c-0.2-19.6,7.2-37.9,20.8-51.5
	c13.4-13.4,31.4-20.8,50.6-20.8c20,0,38.9,7.9,53.2,22.2c21.9,21.9,34.4,97.5,39.1,139.6h-17.7
	C-4446.2,233.6-4507.7,221.5-4527.1,202.2z M-4799.4,262.8h394.3c8.4,1.1,15.6,1.9,21.2,2.4v169.6h-450.6V297.9
	C-4834.5,278.5-4818.8,262.8-4799.4,262.8z M-4739.1,862.5V458.3h355.1v439.4h-320C-4723.3,897.6-4739.1,881.9-4739.1,862.5z
	 M-4005.4,862.5c0,19.4-15.8,35.2-35.2,35.2h-320V458.3h355.1V862.5z"/>
<path fill="#FFFFFF" d="M500,46.9c249.9,0,453.1,203.3,453.1,453.1S749.9,953.1,500,953.1S46.9,749.9,46.9,500S250.1,46.9,500,46.9
	 M500,0C223.9,0,0,223.9,0,500s223.9,500,500,500s500-223.9,500-500S776.1,0,500,0L500,0z"/>
<polygon fill="#FFFFFF" stroke="#FFFFFF" stroke-width="4" stroke-linecap="round" stroke-linejoin="round" stroke-miterlimit="10" points="
	385,499.6 385,311.4 548,405.5 711,499.6 548,593.8 385,687.9 "/>
</svg>
